<svg xmlns="http://www.w3.org/2000/svg" xmlns:xlink="http://www.w3.org/1999/xlink" xml:space="preserve" version="1.1" style="shape-rendering:geometricPrecision;text-rendering:geometricPrecision;image-rendering:optimizeQuality;" viewBox="0 0 902.78 1128.475" x="0px" y="0px" fill-rule="evenodd" clip-rule="evenodd"><defs><style type="text/css">
   
    .fil0 {fill:black;fill-rule:nonzero}
   
  </style></defs><g><path class="fil0" d="M115.03 494.02c-28.89,0 -52.31,23.42 -52.31,52.31l0 16.56 0.16 0c-0.07,0.53 -0.16,1.05 -0.16,1.59l0 10.53 0 5.21 0 24.87c0.01,0 0.02,0 0.04,0 0,0.12 -0.04,0.24 -0.04,0.36l0 18.66c0,13.87 11.24,25.11 25.11,25.11l54.41 0c13.87,0 25.11,-11.24 25.11,-25.11l0 -16.96 0 -1.69 0 -42.57 0 -11.44 0 -5.13c0,-28.89 -23.42,-52.31 -52.31,-52.31zm543.5 -291c-25.23,-30.93 -57.54,-56.29 -93.44,-73.35 -36.26,-17.23 -75.09,-25.97 -115.43,-25.97 -40.34,0 -79.18,8.74 -115.44,25.97 -35.9,17.06 -68.2,42.42 -93.43,73.33 -9.52,11.72 -7.74,28.99 3.96,38.5 4.87,3.96 10.99,6.13 17.25,6.13 8.28,0 16.02,-3.68 21.24,-10.1 20.06,-24.59 45.79,-44.78 74.38,-58.36 28.81,-13.69 59.77,-20.63 92.03,-20.63 32.26,0 63.22,6.94 92.03,20.63 28.59,13.58 54.31,33.77 74.39,58.38 5.21,6.41 12.95,10.09 21.23,10.09 6.26,0 12.39,-2.18 17.25,-6.13 11.71,-9.51 13.49,-26.78 3.97,-38.49zm-136.89 14.35c-22.63,-10.76 -46.85,-16.21 -71.98,-16.21 -25.13,0 -49.34,5.45 -71.98,16.21 -22.38,10.63 -42.53,26.45 -58.28,45.75 -9.53,11.72 -7.74,28.99 3.96,38.5 4.86,3.95 10.99,6.13 17.25,6.13 8.28,0 16.02,-3.68 21.24,-10.1 10.57,-12.96 24.14,-23.61 39.23,-30.77 15.18,-7.21 31.53,-10.87 48.57,-10.87 17.05,0 33.39,3.66 48.57,10.87 15.09,7.17 28.66,17.81 39.24,30.78 5.21,6.41 12.95,10.09 21.23,10.09 6.26,0 12.39,-2.18 17.25,-6.13 5.67,-4.61 9.2,-11.15 9.95,-18.43 0.75,-7.27 -1.37,-14.39 -5.98,-20.07 -15.76,-19.31 -35.91,-35.13 -58.29,-45.76zm-16.42 99.46c-15.59,-12.72 -35.32,-19.73 -55.56,-19.73 -20.24,0 -39.98,7.01 -55.57,19.73 -4.59,3.74 -8.81,7.97 -12.56,12.57 -9.52,11.71 -7.74,28.98 3.96,38.5 4.87,3.96 10.99,6.13 17.26,6.13 8.28,0 16.02,-3.68 21.24,-10.1 1.4,-1.72 2.97,-3.3 4.65,-4.66 5.79,-4.72 13.26,-7.33 21.02,-7.33 7.77,0 15.24,2.6 21.02,7.33 1.68,1.37 3.25,2.94 4.67,4.68 5.2,6.4 12.94,10.08 21.22,10.08 6.26,0 12.39,-2.17 17.25,-6.13 11.71,-9.52 13.49,-26.79 3.97,-38.49 -3.78,-4.64 -8.02,-8.87 -12.58,-12.59zm-403.65 41l27.83 0c4.11,0 7.45,-3.34 7.45,-7.45l0 -6.06c0,-11.8 -9.57,-21.36 -21.37,-21.36 -11.8,0 -21.36,9.56 -21.36,21.36l0 6.06c0,4.11 3.33,7.45 7.45,7.45zm115.36 46.5l0.78 -0.15c17.67,-3.28 17.67,-28.59 0,-31.86l-0.78 -0.15c-0.98,-0.18 -1.97,-0.27 -2.96,-0.27l-196.04 0c-0.9,0 -1.81,0.07 -2.7,0.22l-1.72 0.29c-17.98,3.04 -18.02,28.86 -0.05,31.95 0.91,0.16 1.83,0.24 2.75,0.24l197.76 0c0.99,0 1.98,-0.09 2.96,-0.28zm-115.5 15.04c-4.04,0 -7.3,3.27 -7.3,7.3l0 47.82c0,3.72 3.43,6.4 7.07,5.64 4.47,-0.94 9.1,-1.44 13.85,-1.44 5.04,0 9.95,0.57 14.68,1.64 3.65,0.82 7.13,-1.87 7.13,-5.61l0 -48.04c0,-4.03 -3.27,-7.3 -7.3,-7.3l-28.12 0zm723.87 143.53l0 -16.56c0,-28.89 -23.42,-52.31 -52.31,-52.31 -28.89,0 -52.31,23.42 -52.31,52.31l0 5.13 0 11.44 0 42.57 0 5.87 0 12.78c0,13.87 11.24,25.11 25.11,25.11l54.4 0c13.87,0 25.11,-11.24 25.11,-25.11l0 -18.66c0,-0.12 -0.03,-0.23 -0.04,-0.36 0.02,0 0.04,0 0.06,0l0 -24.87 0 -5.21 0 -10.53c0,-0.55 -0.09,-1.07 -0.16,-1.59l0.14 0zm-52.31 -84.87c5.04,0 9.95,0.57 14.67,1.64 3.66,0.82 7.14,-1.87 7.14,-5.61l0 -47.38c0,-4.03 -3.27,-7.3 -7.31,-7.3l-28.12 0c-4.03,0 -7.3,3.27 -7.3,7.3l0 47.16c0,3.72 3.43,6.4 7.07,5.64 4.47,-0.94 9.1,-1.44 13.85,-1.44zm-13.47 -120.19l27.83 0c4.11,0 7.45,-3.34 7.45,-7.45l0 -6.06c0,-11.8 -9.57,-21.36 -21.37,-21.36 -11.8,0 -21.37,9.56 -21.37,21.36l0 6.06c0,4.11 3.34,7.45 7.45,7.45zm116.14 14.49l-0.78 -0.15c-0.98,-0.18 -1.96,-0.27 -2.96,-0.27l-196.04 0c-0.91,0 -1.81,0.07 -2.7,0.22l-1.72 0.29c-17.98,3.04 -18.02,28.86 -0.05,31.95 0.91,0.16 1.82,0.24 2.74,0.24l197.76 0c1,0 1.98,-0.09 2.96,-0.28l0.78 -0.15c17.66,-3.28 17.66,-28.59 0,-31.86zm-425.99 156.98c-28.17,0 -51,22.84 -51,51 0,28.17 22.84,51 51,51 28.17,0 51,-22.83 51,-51 0,-28.17 -22.83,-51 -51,-51zm232.37 194.33l-87.88 -88.69c28.35,-7.27 61.29,-14.35 97.81,-19.78 4.64,-0.69 8.15,-4.64 8.15,-9.33l0 -44.96c0,-5.2 -4.22,-9.43 -9.43,-9.43l-55.26 0c-18.76,0 -37.34,-8.11 -47.8,-23.67 -20.02,-29.76 -76.75,-51.21 -143.61,-51.21 -66.86,0 -123.59,21.46 -143.61,51.21 -10.47,15.56 -29.05,23.67 -47.8,23.67l-55.27 0c-5.21,0 -9.43,4.22 -9.43,9.43l0 40.3c0,4.73 3.56,8.69 8.25,9.34 37.8,5.21 72.24,12.94 101.88,21.14l-90.76 91.51c-15.5,15.62 -15.48,40.82 0.04,56.43l31.4 31.56c3,3.01 8.07,2.14 9.89,-1.7l9.28 -19.61c1.11,-2.35 0.63,-5.14 -1.21,-6.98l-20.76 -20.76c-4.91,-4.91 -4.91,-12.87 0,-17.78l100.91 -100.91c27.5,9.12 48.12,17.62 59.57,22.67 8.93,3.93 18.42,6.36 28.13,7.35 15.93,1.63 32.01,1.43 47.91,-0.63 8,-1.04 15.68,-3.39 23.17,-6.38 11.33,-4.52 31.63,-12.12 59.05,-20.46l100.06 100.06c4.57,4.57 4.56,11.98 -0.02,16.55l-20.28 20.22c-2.69,2.68 -3.2,6.75 -1.4,10.09 2.51,4.67 4.82,9.46 6.95,14.34 2.37,5.44 9.58,6.66 13.79,2.47l28.09 -27.95c16.09,-16.01 16.18,-42.02 0.2,-58.14zm-200.44 -281.55l-63.9 0c-7.74,0 -13.28,-7.69 -10.7,-14.98 6.2,-17.54 22.99,-30.16 42.72,-30.16 19.62,0 36.38,12.62 42.58,30.17 2.58,7.29 -2.96,14.97 -10.7,14.97zm-31.93 212.17l0 0c-40.84,0 -73.96,-33.11 -73.96,-73.95 0,-40.84 33.11,-73.96 73.96,-73.96 40.84,0 73.95,33.11 73.95,73.96 0,40.84 -33.11,73.95 -73.95,73.95zm0 -45.9l0 0c-15.49,0 -28.05,-12.56 -28.05,-28.05 0,-2.88 0.43,-5.65 1.24,-8.26 2.2,4.87 7.1,8.26 12.79,8.26 7.75,0 14.03,-6.28 14.03,-14.02 0,-5.69 -3.39,-10.59 -8.26,-12.79 2.61,-0.8 5.38,-1.24 8.26,-1.24 15.49,0 28.05,12.56 28.05,28.06 0,15.49 -12.56,28.05 -28.05,28.05z"/></g><text x="0" y="917.78" fill="#000000" font-size="5px" font-weight="bold" font-family="'Helvetica Neue', Helvetica, Arial-Unicode, Arial, Sans-serif">Created by popcornarts</text><text x="0" y="922.78" fill="#000000" font-size="5px" font-weight="bold" font-family="'Helvetica Neue', Helvetica, Arial-Unicode, Arial, Sans-serif">from the Noun Project</text></svg>